<svg xmlns="http://www.w3.org/2000/svg" width="278.61" height="35" viewBox="0 0 278.61 35"><rect class="svg__rect" x="0" y="0" width="51.7" height="35" fill="#31C4F3"/><rect class="svg__rect" x="49.7" y="0" width="228.91000000000003" height="35" fill="#389AD5"/><path class="svg__text" d="M15.70 22L14.22 22L14.22 13.47L15.70 13.47L15.70 17.02L19.51 17.02L19.51 13.47L20.99 13.47L20.99 22L19.51 22L19.51 18.21L15.70 18.21L15.70 22ZM27.30 22L25.82 22L25.82 13.47L27.30 13.47L27.30 22ZM33.79 14.66L31.15 14.66L31.15 13.47L37.92 13.47L37.92 14.66L35.26 14.66L35.26 22L33.79 22L33.79 14.66Z" fill="#FFFFFF"/><path class="svg__text" d="M66.09 22L63.89 22L63.89 13.60L65.84 13.60L68.80 18.45L71.68 13.60L73.63 13.60L73.66 22L71.48 22L71.45 17.55L69.29 21.17L68.24 21.17L66.09 17.67L66.09 22ZM83.36 22L78.82 22L78.82 13.60L83.12 13.60Q84.72 13.60 85.56 14.19Q86.41 14.79 86.41 15.79L86.41 15.79Q86.41 16.39 86.11 16.87Q85.81 17.34 85.27 17.62L85.27 17.62Q86.00 17.87 86.40 18.41Q86.81 18.94 86.81 19.70L86.81 19.70Q86.81 20.80 85.92 21.40Q85.03 22 83.36 22L83.36 22ZM81.17 18.58L81.17 20.28L83.17 20.28Q84.41 20.28 84.41 19.43L84.41 19.43Q84.41 18.58 83.17 18.58L83.17 18.58L81.17 18.58ZM81.17 15.31L81.17 16.94L82.80 16.94Q84.00 16.94 84.00 16.12L84.00 16.12Q84.00 15.31 82.80 15.31L82.80 15.31L81.17 15.31ZM94.77 19.46L91.26 19.46L91.26 17.71L94.77 17.71L94.77 19.46ZM104.21 22L99.67 22L99.67 13.60L103.97 13.60Q105.57 13.60 106.41 14.19Q107.25 14.79 107.25 15.79L107.25 15.79Q107.25 16.39 106.96 16.87Q106.66 17.34 106.12 17.62L106.12 17.62Q106.84 17.87 107.25 18.41Q107.66 18.94 107.66 19.70L107.66 19.70Q107.66 20.80 106.77 21.40Q105.88 22 104.21 22L104.21 22ZM102.02 18.58L102.02 20.28L104.01 20.28Q105.26 20.28 105.26 19.43L105.26 19.43Q105.26 18.58 104.01 18.58L104.01 18.58L102.02 18.58ZM102.02 15.31L102.02 16.94L103.65 16.94Q104.85 16.94 104.85 16.12L104.85 16.12Q104.85 15.31 103.65 15.31L103.65 15.31L102.02 15.31ZM114.75 22L112.37 22L112.37 13.60L114.75 13.60L114.75 22ZM119.50 17.80L119.50 17.80Q119.50 16.55 120.10 15.55Q120.71 14.56 121.77 14.00Q122.83 13.43 124.16 13.43L124.16 13.43Q125.49 13.43 126.56 14.00Q127.62 14.56 128.23 15.55Q128.83 16.55 128.83 17.80L128.83 17.80Q128.83 19.05 128.23 20.04Q127.62 21.04 126.56 21.60Q125.50 22.17 124.16 22.17L124.16 22.17Q122.83 22.17 121.77 21.60Q120.71 21.04 120.10 20.04Q119.50 19.05 119.50 17.80ZM121.90 17.80L121.90 17.80Q121.90 18.51 122.20 19.05Q122.50 19.60 123.01 19.90Q123.53 20.20 124.16 20.20L124.16 20.20Q124.80 20.20 125.32 19.90Q125.83 19.60 126.13 19.05Q126.43 18.51 126.43 17.80L126.43 17.80Q126.43 17.09 126.13 16.54Q125.83 16 125.32 15.70Q124.80 15.40 124.16 15.40L124.16 15.40Q123.52 15.40 123.01 15.70Q122.50 16 122.20 16.54Q121.90 17.09 121.90 17.80ZM135.94 22L133.56 22L133.56 13.60L135.94 13.60L135.94 22ZM143.45 22L141.11 22L141.11 13.60L143.07 13.60L146.78 18.07L146.78 13.60L149.11 13.60L149.11 22L147.16 22L143.45 17.52L143.45 22ZM156.65 22L154.27 22L154.27 13.60L160.86 13.60L160.86 15.44L156.65 15.44L156.65 17.28L160.36 17.28L160.36 19.12L156.65 19.12L156.65 22ZM165.03 17.80L165.03 17.80Q165.03 16.55 165.63 15.55Q166.23 14.56 167.30 14.00Q168.36 13.43 169.69 13.43L169.69 13.43Q171.02 13.43 172.08 14.00Q173.15 14.56 173.75 15.55Q174.36 16.55 174.36 17.80L174.36 17.80Q174.36 19.05 173.75 20.04Q173.15 21.04 172.09 21.60Q171.03 22.17 169.69 22.17L169.69 22.17Q168.36 22.17 167.30 21.60Q166.23 21.04 165.63 20.04Q165.03 19.05 165.03 17.80ZM167.42 17.80L167.42 17.80Q167.42 18.51 167.72 19.05Q168.03 19.60 168.54 19.90Q169.06 20.20 169.69 20.20L169.69 20.20Q170.33 20.20 170.84 19.90Q171.36 19.60 171.66 19.05Q171.96 18.51 171.96 17.80L171.96 17.80Q171.96 17.09 171.66 16.54Q171.36 16 170.84 15.70Q170.33 15.40 169.69 15.40L169.69 15.40Q169.05 15.40 168.54 15.70Q168.03 16 167.72 16.54Q167.42 17.09 167.42 17.80ZM182.33 19.46L178.83 19.46L178.83 17.71L182.33 17.71L182.33 19.46ZM188.65 22L186.22 22L189.93 13.60L192.27 13.60L195.99 22L193.52 22L192.86 20.37L189.31 20.37L188.65 22ZM191.08 15.93L190.00 18.61L192.16 18.61L191.08 15.93ZM202.47 22L200.14 22L200.14 13.60L202.10 13.60L205.81 18.07L205.81 13.60L208.13 13.60L208.13 22L206.18 22L202.47 17.52L202.47 22ZM214.71 22L212.29 22L216.00 13.60L218.34 13.60L222.06 22L219.59 22L218.93 20.37L215.38 20.37L214.71 22ZM217.15 15.93L216.07 18.61L218.23 18.61L217.15 15.93ZM232.60 22L226.21 22L226.21 13.60L228.59 13.60L228.59 20.11L232.60 20.11L232.60 22ZM239.14 18.95L235.94 13.60L238.44 13.60L240.44 16.94L242.43 13.60L244.73 13.60L241.51 18.99L241.51 22L239.14 22L239.14 18.95ZM248.23 21.24L248.23 21.24L249.01 19.49Q249.57 19.86 250.32 20.09Q251.06 20.32 251.78 20.32L251.78 20.32Q253.15 20.32 253.15 19.64L253.15 19.64Q253.15 19.28 252.76 19.11Q252.37 18.93 251.51 18.74L251.51 18.74Q250.56 18.53 249.92 18.30Q249.28 18.06 248.83 17.55Q248.38 17.03 248.38 16.16L248.38 16.16Q248.38 15.39 248.80 14.77Q249.21 14.15 250.05 13.79Q250.88 13.43 252.09 13.43L252.09 13.43Q252.92 13.43 253.72 13.62Q254.53 13.80 255.14 14.17L255.14 14.17L254.41 15.93Q253.21 15.28 252.08 15.28L252.08 15.28Q251.37 15.28 251.05 15.49Q250.73 15.70 250.73 16.04L250.73 16.04Q250.73 16.37 251.11 16.54Q251.49 16.71 252.34 16.89L252.34 16.89Q253.30 17.10 253.93 17.33Q254.56 17.56 255.03 18.07Q255.49 18.58 255.49 19.46L255.49 19.46Q255.49 20.21 255.07 20.83Q254.65 21.44 253.81 21.80Q252.97 22.17 251.77 22.17L251.77 22.17Q250.75 22.17 249.79 21.92Q248.83 21.67 248.23 21.24ZM261.86 15.48L259.27 15.48L259.27 13.60L266.80 13.60L266.80 15.48L264.23 15.48L264.23 22L261.86 22L261.86 15.48Z" fill="#FFFFFF" x="62.7"/></svg>