<?xml version="1.0" standalone="no"?>
<!DOCTYPE svg PUBLIC "-//W3C//DTD SVG 20010904//EN"
 "http://www.w3.org/TR/2001/REC-SVG-20010904/DTD/svg10.dtd">
<svg version="1.0" xmlns="http://www.w3.org/2000/svg"
 width="512.000000pt" height="512.000000pt" viewBox="0 0 512.000000 512.000000"
 preserveAspectRatio="xMidYMid meet">

<g transform="translate(0.000000,512.000000) scale(0.100000,-0.100000)"
fill="#000000" stroke="none">
<path d="M0 4015 l0 -1105 32 0 c17 0 39 7 49 16 14 13 41 17 114 17 52 1 95
4 95 7 0 3 18 6 40 7 57 3 85 10 112 24 12 7 26 12 31 11 4 -1 6 2 5 7 -2 5 4
16 14 23 9 7 19 28 23 46 7 32 3 37 -123 161 -182 179 -205 222 -165 309 21
46 107 132 133 132 10 0 22 5 25 10 3 6 17 10 31 10 14 0 27 7 31 16 6 17 46
36 78 38 11 1 39 -4 62 -10 26 -7 41 -8 37 -2 -3 5 12 0 35 -11 22 -12 51 -21
65 -21 14 0 28 -4 31 -10 3 -5 15 -10 26 -10 11 0 17 -5 14 -10 -3 -6 2 -13
12 -17 10 -4 33 -20 51 -37 18 -17 40 -34 49 -37 27 -9 63 2 63 20 1 15 2 15
13 -1 12 -15 14 -15 24 0 9 15 16 15 51 6 30 -8 43 -8 46 0 3 7 5 7 5 -1 1 -7
13 -13 29 -14 15 0 36 -4 47 -8 11 -4 24 -3 31 3 10 8 8 15 -9 29 -16 13 -17
16 -4 11 24 -9 11 23 -21 53 -14 13 -21 23 -17 23 4 0 2 7 -5 15 -7 8 -9 15
-4 15 5 0 -11 18 -36 41 -25 22 -39 37 -31 33 10 -5 7 5 -7 28 -26 42 -27 48
-7 48 8 0 15 7 15 15 0 16 15 20 24 7 3 -5 19 -9 35 -10 16 0 48 -12 70 -26
22 -14 44 -26 48 -26 12 0 150 -115 228 -189 108 -103 193 -163 178 -126 -9
25 24 28 84 7 l58 -20 26 24 c14 14 36 26 48 27 11 1 22 6 22 12 1 5 3 19 4
30 5 42 17 65 43 78 24 11 33 10 72 -9 25 -12 84 -52 130 -89 116 -92 119 -94
160 -56 19 17 36 28 39 26 2 -3 15 5 29 17 13 13 25 22 28 21 10 -6 34 10 34
23 0 21 33 33 70 25 34 -7 90 4 90 18 0 4 20 6 45 6 25 -1 48 2 51 7 3 4 14 8
24 8 12 0 29 18 47 50 15 27 31 50 36 50 4 0 7 5 7 10 0 6 8 19 18 29 64 71
98 101 114 107 10 3 18 10 18 15 0 5 7 9 15 9 9 0 18 7 21 15 4 8 14 15 23 15
9 0 21 4 27 10 5 5 22 11 37 12 15 1 27 5 27 9 0 8 42 17 143 29 87 11 98 13
115 24 10 6 11 1 7 -21 l-6 -28 13 29 c15 33 115 90 133 77 5 -5 24 -12 42
-16 l32 -6 -4 37 c-5 33 -4 35 12 23 14 -12 14 -10 -2 14 -22 34 -18 39 26 27
18 -6 53 -10 77 -10 26 0 41 -4 37 -10 -3 -5 -17 -10 -31 -10 -32 0 -23 -16
13 -25 15 -3 33 -15 41 -26 7 -10 22 -19 32 -19 17 0 19 6 16 49 -2 27 -6 53
-10 59 -3 6 -2 13 4 17 15 9 12 23 -10 45 -16 16 -17 20 -5 20 8 0 15 7 15 15
0 8 -5 15 -11 15 -5 0 -7 5 -4 11 4 6 9 30 12 54 2 24 19 90 38 147 33 101 43
119 26 46 -6 -26 -5 -39 3 -42 7 -3 7 -5 -1 -5 -7 -1 -13 -6 -13 -12 0 -7 20
-10 57 -7 l56 3 1 -80 c1 -44 5 -86 9 -92 5 -8 4 -13 -3 -13 -6 0 -8 -5 -5
-10 10 -17 6 -277 -6 -350 -11 -70 -55 -172 -91 -211 -30 -33 -53 -93 -33 -85
8 3 15 -3 17 -16 3 -18 7 -16 42 18 21 21 52 65 67 99 51 107 58 201 61 770 1
281 -1 525 -6 543 l-8 32 -2009 0 -2009 0 0 -1105z m4007 569 c-3 -3 -12 -4
-19 -1 -8 3 -5 6 6 6 11 1 17 -2 13 -5z m-16 -43 c-8 -5 -20 -7 -28 -4 -21 8
-15 13 15 13 20 0 23 -3 13 -9z m-236 -222 c-4 -5 -21 -9 -38 -8 l-32 1 30 13
c31 13 50 11 40 -6z m5 -43 c-16 -15 -150 -30 -150 -17 0 4 18 8 41 9 22 1 48
6 57 12 9 5 28 10 42 10 21 0 22 -2 10 -14z m3 -46 c16 -20 16 -20 -33 -20
-28 0 -52 0 -55 0 -3 0 -6 3 -7 8 -2 4 12 8 30 10 17 2 32 7 32 13 0 15 14 10
33 -11z m-138 -10 c3 -5 2 -10 -4 -10 -5 0 -13 5 -16 10 -3 6 -2 10 4 10 5 0
13 -4 16 -10z m-45 -50 c0 -5 -2 -10 -4 -10 -3 0 -8 5 -11 10 -3 6 -1 10 4 10
6 0 11 -4 11 -10z m-2738 -446 c-9 -7 -19 -10 -22 -8 -2 3 2 9 10 14 10 7 11
10 3 10 -7 0 -13 7 -13 15 0 12 3 12 19 -2 19 -15 19 -17 3 -29z"/>
<path d="M4040 5093 c0 -16 5 -60 10 -99 5 -39 10 -105 11 -147 2 -43 5 -81 8
-86 4 -5 26 -13 51 -19 l45 -10 -50 -1 c-46 -2 -48 -3 -31 -16 11 -8 41 -18
68 -21 56 -8 64 -24 11 -24 -44 0 -40 -8 6 -12 18 -1 35 -6 37 -10 3 -4 11 -8
18 -8 9 0 13 14 13 43 -1 41 2 47 24 47 8 0 8 -4 0 -14 -9 -11 -9 -15 1 -20 8
-4 9 -8 3 -11 -6 -3 -9 -32 -8 -65 1 -36 -2 -58 -7 -55 -6 4 -10 2 -10 -4 0
-5 5 -11 12 -13 9 -3 1 -55 -26 -189 -33 -162 -44 -198 -94 -304 -66 -143 -78
-159 -79 -113 -2 84 -6 93 -14 38 -5 -30 -10 -82 -12 -115 l-4 -59 36 40 c20
23 60 82 90 132 30 51 56 92 58 92 9 0 -52 -105 -111 -190 -74 -107 -81 -126
-38 -108 15 7 39 20 54 31 16 10 32 16 37 13 5 -3 11 0 14 8 7 18 68 48 102
50 14 0 25 4 25 7 0 4 21 10 48 15 56 9 62 9 82 1 8 -3 28 -8 43 -11 31 -7 86
-77 102 -129 5 -18 9 -86 10 -152 0 -102 -4 -130 -24 -185 -31 -85 -59 -128
-116 -178 -42 -37 -50 -51 -73 -129 -38 -132 -33 -233 12 -233 6 0 26 14 45
30 37 34 54 41 57 23 1 -7 2 -17 3 -23 2 -20 22 -9 64 34 42 42 52 46 114 38
15 -2 68 -51 68 -63 0 -24 34 -45 68 -43 21 2 37 -1 37 -6 0 -6 6 -10 13 -10
27 0 84 -67 95 -113 11 -40 9 -53 -8 -100 -16 -43 -18 -60 -10 -81 5 -15 10
-46 10 -68 0 -31 6 -46 25 -64 14 -13 25 -34 25 -47 0 -14 7 -31 16 -38 26
-22 6 -111 -56 -244 -56 -119 -61 -135 -45 -141 8 -3 47 0 87 7 40 7 88 12
106 11 l32 -1 0 1570 0 1569 -330 0 -330 0 0 -74 c0 -85 -17 -114 -19 -33 -1
28 -3 61 -5 72 -3 11 -5 23 -5 28 -1 4 -6 7 -11 7 -7 0 -8 -50 -4 -142 8 -165
-2 -308 -21 -335 -12 -15 -14 5 -13 147 1 91 0 202 0 248 -2 81 -2 82 -28 82
-18 0 -25 -4 -21 -14 34 -88 33 -440 -1 -602 -20 -93 -84 -283 -90 -265 -2 5
4 44 13 87 27 132 45 350 45 561 0 111 -3 208 -6 217 -5 13 -26 16 -130 16
l-124 0 0 -27z m220 -247 c0 -3 -4 -8 -10 -11 -5 -3 -10 -1 -10 4 0 6 5 11 10
11 6 0 10 -2 10 -4z m0 -70 c0 -3 -4 -8 -10 -11 -5 -3 -10 -1 -10 4 0 6 5 11
10 11 6 0 10 -2 10 -4z m-43 -52 c-3 -3 -12 -4 -19 -1 -8 3 -5 6 6 6 11 1 17
-2 13 -5z"/>
<path d="M4148 4623 c6 -2 18 -2 25 0 6 3 1 5 -13 5 -14 0 -19 -2 -12 -5z"/>
<path d="M4202 4619 c2 -6 8 -10 13 -10 5 0 11 4 13 10 2 6 -4 11 -13 11 -9 0
-15 -5 -13 -11z"/>
<path d="M4200 4574 c0 -8 5 -12 10 -9 6 4 8 11 5 16 -9 14 -15 11 -15 -7z"/>
<path d="M4204 4525 c11 -8 22 -12 25 -9 6 6 -19 24 -34 24 -5 -1 -1 -7 9 -15z"/>
<path d="M3925 4490 c-18 -8 -17 -9 8 -9 15 -1 27 4 27 9 0 12 -8 12 -35 0z"/>
<path d="M4050 4183 c0 -11 49 -90 50 -80 0 11 -39 87 -45 87 -3 0 -5 -3 -5
-7z"/>
<path d="M3620 4132 c0 -9 94 -71 99 -66 3 2 -6 15 -19 28 -22 25 -80 52 -80
38z"/>
<path d="M3725 4109 c26 -16 44 -40 45 -58 0 -12 -3 -12 -12 -3 -23 23 -31 12
-9 -12 20 -21 24 -38 28 -123 6 -120 -7 -195 -51 -293 -19 -41 -37 -88 -41
-105 -3 -16 -8 -38 -11 -47 -9 -29 8 -21 60 30 82 79 90 108 91 312 0 96 -1
198 -3 225 -3 48 -5 51 -40 62 -20 6 -46 15 -57 18 l-20 7 20 -13z"/>
<path d="M3530 4075 c0 -8 -6 -15 -12 -16 -7 0 -3 -4 9 -9 14 -6 21 -15 17
-24 -4 -9 2 -16 18 -19 21 -4 20 -4 -4 -6 -37 -1 -36 -20 2 -27 16 -4 27 -10
25 -14 -3 -5 -14 -6 -25 -3 -14 4 -20 0 -20 -12 0 -9 8 -19 18 -22 16 -4 21
-25 36 -141 9 -75 16 -151 16 -167 0 -46 -63 -168 -111 -216 -37 -37 -43 -49
-47 -95 l-4 -52 33 3 c44 3 100 66 148 165 35 73 36 77 35 190 -1 75 -9 150
-23 215 -27 128 -26 123 -33 131 -4 3 -4 13 -1 21 3 8 0 19 -8 24 -10 6 -10 9
-1 9 6 0 12 9 12 21 0 13 4 18 13 13 6 -4 3 2 -8 13 -26 27 -85 39 -85 18z"/>
<path d="M3340 3954 c25 -14 25 -14 -15 -12 -35 3 -40 0 -43 -19 -3 -19 1 -23
21 -23 63 0 77 -27 17 -32 l-39 -3 16 -34 c16 -32 62 -61 98 -61 23 0 21 76
-2 89 -16 9 -16 10 -2 11 12 0 16 9 14 36 -1 31 -6 38 -34 50 -44 18 -63 17
-31 -2z"/>
<path d="M3307 3759 c-3 -12 0 -38 6 -58 10 -30 17 -37 47 -41 l35 -6 -28 -7
c-25 -7 -27 -10 -16 -24 18 -21 24 -200 10 -278 -16 -88 -94 -239 -153 -297
-41 -40 -50 -56 -58 -100 -5 -29 -14 -68 -21 -86 -24 -68 19 -51 120 49 78 77
151 206 171 304 17 79 17 223 1 365 -21 189 -16 175 -60 188 -49 15 -48 16
-54 -9z"/>
<path d="M3977 3733 c-38 -62 -30 -64 11 -2 18 27 29 49 25 49 -5 0 -21 -21
-36 -47z"/>
<path d="M3023 3743 c9 -2 23 -2 30 0 6 3 -1 5 -18 5 -16 0 -22 -2 -12 -5z"/>
<path d="M3108 3698 c-13 -13 -33 -18 -74 -18 -49 0 -55 -2 -44 -15 15 -18
120 -21 138 -3 13 13 16 45 5 51 -5 2 -16 -4 -25 -15z"/>
<path d="M3068 3630 c-26 -3 -50 -9 -53 -12 -10 -10 28 -48 48 -48 10 0 16 -4
12 -9 -3 -5 -22 -8 -43 -5 l-37 4 43 -13 43 -12 -27 -27 c-38 -37 -27 -58 31
-58 48 0 50 3 46 63 -1 15 2 27 7 27 20 0 22 34 4 54 -11 12 -21 26 -23 31 -2
6 -24 8 -51 5z"/>
<path d="M2785 3530 c-3 -5 -24 -10 -45 -10 -41 0 -67 -19 -28 -21 13 -1 29
-1 36 0 6 1 16 -9 21 -22 12 -31 69 -56 82 -36 5 8 9 26 9 41 0 39 -58 76 -75
48z"/>
<path d="M2658 3453 c7 -3 16 -2 19 1 4 3 -2 6 -13 5 -11 0 -14 -3 -6 -6z"/>
<path d="M2700 3435 c7 -8 28 -18 48 -21 49 -9 65 -26 48 -49 -12 -16 -15 -16
-43 -1 l-31 15 19 -38 c13 -29 27 -41 48 -46 46 -10 71 12 71 62 0 49 -9 56
-96 79 -70 18 -80 18 -64 -1z"/>
<path d="M3020 3427 c0 -8 9 -40 20 -72 41 -119 19 -336 -46 -455 -14 -27 -51
-79 -80 -116 l-54 -68 0 -75 c0 -42 -3 -87 -6 -101 -4 -19 15 -4 78 61 104
107 133 148 165 240 21 59 27 99 31 194 5 122 -13 290 -29 279 -5 -3 -17 0
-26 5 -15 9 -14 10 10 11 28 0 28 1 25 53 l-3 52 -42 3 c-32 2 -43 -1 -43 -11z"/>
<path d="M2560 3346 c0 -3 37 -16 83 -31 78 -24 130 -55 92 -55 -8 0 -20 -11
-26 -24 -7 -16 -17 -23 -28 -20 -9 3 2 -5 24 -17 66 -36 91 -40 120 -17 31 25
33 63 3 82 -21 13 -241 86 -260 86 -4 0 -8 -2 -8 -4z"/>
<path d="M2550 3276 c0 -2 8 -10 18 -17 15 -13 16 -12 3 4 -13 16 -21 21 -21
13z"/>
<path d="M2486 3237 c9 -24 -25 -41 -75 -39 -29 1 -41 -2 -32 -7 11 -7 10 -10
-5 -13 -14 -3 -9 -7 19 -17 45 -15 46 -30 8 -74 l-30 -33 66 -22 c62 -21 67
-21 84 -6 13 12 19 31 19 61 0 37 -4 45 -25 55 -20 9 -22 13 -10 22 7 6 17 23
21 39 5 21 3 27 -10 27 -9 0 -16 5 -16 10 0 6 -4 10 -10 10 -5 0 -7 -6 -4 -13z"/>
<path d="M2707 3164 c-10 -11 3 -76 20 -95 8 -10 10 -18 4 -20 -6 -3 -6 -20
-1 -49 5 -25 9 -108 10 -184 0 -209 -27 -297 -137 -444 -72 -97 -108 -165
-122 -231 -6 -30 -10 -56 -8 -58 3 -2 69 59 149 136 150 145 183 191 209 294
17 71 6 313 -19 407 -15 55 -19 96 -16 152 2 42 1 79 -4 82 -16 9 -78 17 -85
10z"/>
<path d="M1824 3065 c-17 -14 -15 -15 31 -9 71 9 91 23 34 24 -26 0 -53 -7
-65 -15z"/>
<path d="M2046 3018 c6 -20 5 -21 -10 -9 -14 11 -16 11 -16 -2 0 -26 -37 -27
-62 0 -21 23 -28 24 -88 19 -129 -11 -203 -25 -212 -40 -13 -20 -8 -26 15 -17
43 16 115 22 134 11 10 -6 43 -19 73 -30 43 -16 48 -19 20 -15 -71 10 -185 18
-180 12 3 -3 23 -6 45 -8 22 -1 43 -4 47 -6 12 -6 -15 -43 -32 -44 -8 0 -1 -7
17 -15 30 -13 53 -34 36 -34 -4 0 -42 9 -83 20 -41 10 -76 17 -78 15 -8 -8 48
-36 125 -60 46 -15 80 -31 77 -36 -3 -5 -2 -9 3 -9 4 0 15 -4 23 -10 12 -7 12
-12 -4 -29 -17 -19 -21 -19 -47 -5 -16 8 -29 20 -29 26 0 9 -3 9 -11 1 -6 -6
-18 -9 -25 -6 -8 3 -14 1 -14 -5 0 -5 7 -13 16 -16 9 -4 14 -9 11 -13 -4 -3
24 -21 61 -39 60 -30 51 -37 -16 -13 -39 15 -39 9 0 -12 39 -20 43 -49 7 -49
-20 0 -36 -40 -24 -59 10 -17 43 -13 55 7 10 15 10 15 8 -3 -3 -15 -13 -21
-48 -26 -44 -6 -44 -6 -8 -7 20 -1 44 1 53 4 23 9 57 81 50 105 -5 15 -2 19
18 19 35 0 71 43 70 85 -1 23 4 35 12 35 23 0 55 51 55 86 0 23 -7 38 -26 53
-24 19 -25 21 -10 43 17 23 20 55 10 82 -10 25 -26 19 -18 -6z m-102 -114 c21
-8 20 -27 -2 -54 -18 -22 -19 -22 -51 -6 -37 20 -50 44 -30 57 16 10 60 12 83
3z m117 -87 c-8 -8 -11 -7 -11 4 0 20 13 34 18 19 3 -7 -1 -17 -7 -23z"/>
<path d="M2373 3019 c9 -14 7 -22 -8 -39 -13 -14 -21 -17 -26 -9 -4 6 -12 8
-19 4 -9 -6 -6 -12 11 -21 33 -18 10 -17 -35 1 -53 22 -44 9 12 -18 l47 -22 0
-68 c1 -48 -4 -71 -13 -76 -12 -7 -12 -9 1 -14 38 -14 30 -333 -13 -503 -41
-165 -146 -334 -271 -441 -98 -83 -179 -165 -179 -182 0 -9 -11 -61 -25 -116
-30 -122 -31 -135 -5 -102 11 14 73 70 138 124 263 219 413 388 453 509 58
177 46 496 -24 657 -14 31 -22 57 -17 57 5 0 17 12 26 26 16 24 16 28 1 60
-21 43 -21 44 1 44 23 0 42 39 42 84 0 31 -3 33 -54 48 -52 14 -54 14 -43 -3z"/>
<path d="M1050 2748 c-48 -14 -62 -27 -58 -57 4 -30 52 -51 188 -82 162 -37
188 -41 210 -29 38 20 44 47 20 97 l-21 45 -23 -21 c-24 -22 -47 -26 -74 -12
-9 4 -29 11 -43 15 -23 5 -28 1 -39 -24 -15 -36 -34 -52 -21 -18 5 13 7 36 4
50 -4 23 -13 28 -55 37 -27 6 -50 11 -51 10 -1 0 -18 -5 -37 -11z"/>
<path d="M913 2653 c9 -2 25 -2 35 0 9 3 1 5 -18 5 -19 0 -27 -2 -17 -5z"/>
<path d="M640 2640 c-49 -12 -84 -54 -76 -94 9 -45 23 -54 106 -70 41 -8 82
-17 91 -21 24 -9 52 55 44 98 -8 39 -48 87 -73 86 -13 0 -11 -3 6 -9 12 -5 22
-11 22 -12 0 -4 -120 -5 -120 -1 0 2 15 9 33 17 35 16 21 18 -33 6z"/>
<path d="M1945 2619 c4 -6 14 -8 22 -5 8 3 24 1 36 -6 20 -10 21 -10 8 5 -15
19 -77 24 -66 6z"/>
<path d="M864 2596 c-3 -9 -12 -16 -20 -16 -19 0 -17 -19 6 -58 23 -38 71 -69
120 -78 47 -9 73 -23 42 -24 -43 0 -62 -18 -62 -57 0 -31 8 -44 50 -84 30 -28
75 -57 112 -72 61 -24 64 -24 107 -8 24 9 53 28 64 43 18 24 19 32 8 67 -6 22
-21 47 -34 56 -21 15 -21 15 16 15 41 0 107 24 119 43 14 21 9 64 -10 88 -18
21 -56 35 -169 61 -59 13 -103 1 -103 -29 0 -14 -4 -13 -24 6 -24 22 -30 23
-123 17 l-98 -6 45 19 c39 17 41 20 18 20 -14 1 -33 4 -42 7 -10 4 -18 0 -22
-10z m76 -122 c0 -2 -9 0 -20 6 -11 6 -20 13 -20 16 0 2 9 0 20 -6 11 -6 20
-13 20 -16z m58 -15 c-12 -7 -24 -7 -35 0 -15 9 -12 10 17 10 29 0 32 -1 18
-10z m179 -75 c30 -19 29 -68 -2 -72 -29 -4 -81 32 -101 69 l-16 32 48 -7 c26
-3 58 -13 71 -22z m96 19 c-7 -2 -21 -2 -30 0 -10 3 -4 5 12 5 17 0 24 -2 18
-5z m-185 -153 c34 -18 61 -35 59 -37 -9 -8 -95 37 -128 68 -19 19 -26 27 -15
18 12 -9 49 -31 84 -49z"/>
<path d="M1088 2593 c6 -2 18 -2 25 0 6 3 1 5 -13 5 -14 0 -19 -2 -12 -5z"/>
<path d="M2020 2571 c0 -5 7 -11 15 -15 9 -3 15 0 15 9 0 8 -7 15 -15 15 -8 0
-15 -4 -15 -9z"/>
<path d="M288 2503 c-18 -19 -24 -85 -12 -117 3 -9 20 -24 37 -35 26 -15 41
-18 79 -12 26 4 53 12 60 17 8 5 5 1 -5 -8 -11 -10 -34 -18 -53 -18 l-33 0 22
-34 c32 -50 62 -60 117 -41 39 13 43 13 26 0 -11 -8 -27 -15 -35 -15 -12 -1
-11 -3 4 -12 48 -26 75 -61 75 -97 0 -20 -5 -43 -11 -51 -8 -12 -10 -12 -8 5
7 88 -53 137 -168 140 -16 0 -28 11 -40 35 -33 64 -113 96 -177 71 -17 -7 -15
-10 16 -29 38 -23 76 -62 62 -62 -5 0 -44 17 -86 37 -70 34 -79 42 -93 80 -14
37 -39 63 -59 63 -3 0 -6 -108 -6 -240 l0 -240 42 6 c53 8 127 36 184 70 l43
25 48 -24 c26 -13 73 -32 103 -42 71 -23 99 -42 106 -71 5 -20 11 -23 33 -18
14 4 30 11 36 15 5 5 17 9 28 9 13 0 17 5 12 19 -4 12 0 21 11 25 9 4 14 9 11
12 -3 3 9 18 26 34 27 24 32 35 31 71 -1 37 -8 48 -47 86 -44 41 -47 54 -7 33
39 -21 8 29 -41 67 -27 20 -49 43 -49 51 0 9 13 3 35 -16 19 -17 59 -38 89
-48 46 -15 59 -15 86 -4 57 24 75 90 40 147 -28 46 -57 61 -145 76 -70 12 -82
12 -109 -2 -17 -9 -32 -19 -34 -23 -2 -4 -11 -16 -20 -26 -9 -10 -13 -12 -9
-6 16 24 2 58 -33 82 -29 20 -43 23 -83 17 -26 -3 -54 -8 -61 -11 -8 -3 -16 2
-18 11 -3 16 -5 15 -20 -2z m408 -64 c9 -16 -18 -30 -33 -17 -7 6 -10 14 -7
19 7 13 31 11 40 -2z m-638 -193 c15 -8 38 -27 52 -43 l25 -28 -25 21 c-14 12
-41 31 -60 43 -39 24 -34 29 8 7z m180 -177 c9 -7 23 -4 50 12 36 22 36 22 19
2 -17 -19 -145 -93 -162 -93 -3 0 7 11 22 25 26 23 27 26 11 39 -11 8 -18 27
-18 45 l0 33 33 -26 c17 -15 38 -31 45 -37z m190 -65 c64 -15 77 -24 34 -24
-31 0 -122 34 -122 46 0 3 8 3 18 -1 9 -4 41 -13 70 -21z"/>
<path d="M1722 2508 c-12 -80 -12 -99 -3 -117 9 -16 9 -21 -1 -21 -10 0 -12
-28 -10 -122 6 -233 -27 -455 -93 -613 -45 -109 -92 -183 -165 -260 l-57 -60
-5 -248 c-3 -136 -2 -247 2 -247 7 0 87 93 222 261 150 186 196 282 240 502
32 161 32 427 0 577 -29 131 -46 197 -54 205 -11 12 41 55 59 48 10 -4 4 11
-18 40 -40 55 -113 88 -117 55z"/>
<path d="M153 2447 c-49 -19 -47 -22 22 -33 l65 -9 0 27 c0 24 -4 28 -27 27
-16 0 -42 -6 -60 -12z"/>
<path d="M1429 2447 c-12 -37 -7 -49 26 -63 44 -18 57 -18 81 2 16 13 16 15 2
10 -10 -3 -18 -1 -18 5 0 6 -4 7 -10 4 -5 -3 -10 -2 -10 3 0 7 -69 46 -71 39z"/>
<path d="M2270 2425 c13 -14 26 -25 28 -25 3 0 -5 11 -18 25 -13 14 -26 25
-28 25 -3 0 5 -11 18 -25z"/>
<path d="M1560 2365 c-15 -18 -16 -17 37 -44 53 -27 53 -27 53 7 0 43 -64 69
-90 37z"/>
<path d="M1965 2340 c-9 -14 -12 -11 135 -139 78 -67 118 -97 125 -90 11 11
-31 52 -95 94 -19 12 -63 50 -96 84 -41 42 -64 59 -69 51z"/>
<path d="M2202 2250 c38 -44 68 -63 68 -43 0 13 -84 93 -98 93 -7 0 6 -22 30
-50z"/>
<path d="M1293 2225 c-6 -16 19 -50 49 -66 15 -8 17 -6 16 17 -2 16 -10 29
-20 32 -10 2 -18 11 -18 18 0 19 -19 18 -27 -1z"/>
<path d="M1106 2165 c-16 -16 -18 -28 -19 -95 0 -31 5 -37 44 -58 24 -12 48
-27 53 -32 16 -16 -25 -12 -43 4 -9 7 -26 17 -38 20 -22 7 -23 5 -23 -63 0
-38 5 -127 11 -198 19 -218 -20 -518 -107 -823 -90 -319 -259 -628 -469 -860
l-49 -55 289 -3 c159 -1 295 0 301 2 28 11 203 409 263 600 45 140 55 228 54
491 0 278 -9 355 -68 550 -24 83 -53 189 -64 238 -19 86 -19 88 0 98 45 24 -4
167 -63 184 -13 4 -30 9 -39 11 -9 3 -24 -3 -33 -11z"/>
<path d="M1376 2163 c-12 -12 -5 -23 14 -23 11 0 20 4 20 9 0 11 -26 22 -34
14z"/>
<path d="M1980 2117 c0 -10 153 -137 159 -132 2 3 -17 28 -44 55 -34 35 -51
46 -57 37 -5 -8 -8 -6 -8 7 0 11 -3 16 -7 13 -3 -4 -15 0 -25 10 -10 9 -18 13
-18 10z"/>
<path d="M1462 2078 c-9 -9 -6 -18 15 -40 15 -15 35 -28 45 -28 21 0 24 15 6
27 -13 8 -18 9 -39 12 -6 0 -8 10 -4 21 7 22 -5 26 -23 8z"/>
<path d="M735 2051 c-3 -11 -18 -33 -34 -49 l-27 -30 75 -12 c42 -7 118 -25
169 -42 52 -16 100 -27 108 -24 8 3 14 19 14 36 0 29 -13 40 -25 20 -11 -18
-31 -11 -32 11 -2 28 -13 38 -43 41 -18 2 -28 -4 -38 -24 -24 -50 -58 -33 -42
21 8 30 7 33 -23 46 -18 7 -46 16 -64 19 -26 6 -32 4 -38 -13z"/>
<path d="M1949 1987 c30 -44 61 -75 61 -62 0 4 7 2 15 -5 8 -7 15 -8 15 -3 0
11 -104 113 -115 113 -3 0 7 -19 24 -43z"/>
<path d="M1540 1975 c-10 -12 -6 -22 28 -55 43 -44 67 -50 75 -21 6 24 -3 36
-28 36 -12 0 -25 11 -33 28 -15 31 -24 33 -42 12z"/>
<path d="M567 1868 l-28 -23 23 -34 c34 -50 53 -59 85 -41 39 22 52 48 32 63
-9 7 -18 21 -20 32 -6 30 -57 31 -92 3z"/>
<path d="M663 1764 c-38 -29 -40 -39 -14 -54 16 -8 26 -5 50 16 25 21 29 29
21 45 -14 25 -18 24 -57 -7z"/>
<path d="M1384 1723 c-9 -15 -14 -16 -27 -5 -24 20 -31 -4 -10 -38 21 -36 41
-44 77 -30 41 15 44 39 10 67 -35 28 -36 28 -50 6z"/>
<path d="M0 1648 l0 -63 93 -47 c119 -61 122 -62 141 -33 21 32 20 78 -2 98
-16 15 -104 51 -106 45 -14 -38 -43 -78 -57 -78 -23 0 -33 16 -14 23 7 3 21
19 29 35 18 35 13 42 -47 67 l-37 15 0 -62z"/>
<path d="M697 1684 c-10 -11 42 -103 68 -120 23 -15 27 -15 50 0 31 20 30 19
1 51 -15 16 -30 23 -40 19 -9 -3 -16 -1 -16 5 0 6 -6 11 -14 11 -7 0 -16 9
-19 20 -5 20 -18 26 -30 14z"/>
<path d="M1477 1669 c-9 -6 -17 -16 -17 -24 0 -18 48 -55 72 -55 25 0 46 45
31 68 -11 19 -60 25 -86 11z"/>
<path d="M290 1560 c0 -5 -13 -25 -30 -43 -28 -32 -29 -35 -12 -50 9 -8 39
-27 67 -40 56 -29 67 -25 85 29 10 28 9 39 -4 58 -15 24 -106 63 -106 46z"/>
<path d="M814 1535 c-7 -17 33 -92 53 -100 8 -2 24 0 36 6 l22 12 -20 -22
c-20 -23 -19 -23 4 -64 13 -23 40 -64 59 -91 34 -47 36 -48 44 -25 9 24 9 98
1 162 -4 27 -13 41 -31 51 -14 7 -30 28 -36 47 -9 28 -17 35 -43 37 -18 2 -42
-2 -54 -8 -15 -8 -19 -9 -15 -1 4 6 2 11 -4 11 -6 0 -13 -7 -16 -15z"/>
<path d="M411 1434 c-17 -25 -31 -47 -29 -49 9 -8 110 -56 112 -53 1 2 12 16
24 32 29 38 28 61 -5 84 -54 38 -66 36 -102 -14z"/>
<path d="M536 1346 l-25 -33 27 -26 c15 -13 45 -34 67 -45 l39 -20 28 35 28
35 -21 29 c-23 33 -41 44 -86 52 -27 5 -35 2 -57 -27z"/>
<path d="M713 1216 l-30 -35 67 -66 67 -66 26 31 c15 17 27 35 27 40 0 19
-102 130 -119 130 -4 0 -21 -15 -38 -34z"/>
<path d="M6 1138 c-3 -13 -6 -38 -6 -56 0 -30 5 -35 48 -54 26 -11 49 -24 52
-28 3 -5 16 -10 30 -11 14 -2 25 -10 25 -17 0 -19 34 -42 62 -42 12 0 37 13
54 28 31 28 31 28 15 61 -19 35 -69 71 -101 71 -13 0 -28 -14 -43 -40 -12 -22
-27 -40 -32 -40 -15 0 -12 9 11 41 28 39 22 59 -26 86 -52 29 -81 30 -89 1z"/>
<path d="M909 1054 c-7 -14 -25 -28 -41 -31 -26 -5 -26 -6 -12 -28 15 -23 14
-24 -23 -34 -70 -20 -224 -42 -246 -35 -12 4 -23 6 -25 5 -1 0 -19 8 -39 19
-62 33 -104 26 -165 -29 -29 -26 -36 -16 -17 22 7 14 -4 8 -31 -18 -70 -67
-94 -142 -66 -209 8 -20 11 -34 6 -31 -5 3 -14 22 -21 42 -15 47 -5 125 21
171 32 53 -5 20 -42 -37 -35 -56 -37 -105 -5 -153 13 -19 27 -45 30 -59 4 -13
33 -52 65 -87 54 -57 62 -62 100 -62 58 0 161 36 196 68 33 31 61 90 71 149
14 85 170 243 241 243 28 0 36 5 44 26 15 39 12 72 -9 83 -15 8 -21 5 -32 -15z
m-444 -134 c9 -14 -13 -40 -34 -40 -10 0 -26 7 -37 15 -16 13 -17 16 -4 25 20
13 67 13 75 0z m134 -59 c0 -10 -4 -7 -10 8 -5 14 -13 30 -17 36 -4 6 1 2 11
-8 9 -11 17 -27 16 -36z m-185 -300 c-6 -6 -24 19 -24 34 1 6 7 1 15 -9 8 -11
12 -22 9 -25z"/>
<path d="M7 603 c-7 -6 -10 -563 -3 -563 2 0 39 12 82 26 131 42 230 108 276
182 30 49 31 150 0 208 -37 73 -136 142 -112 78 16 -41 11 -42 -11 -1 -26 50
-83 76 -165 77 -33 0 -64 -3 -67 -7z"/>
<path d="M1306 409 c-21 -57 -71 -173 -111 -256 l-74 -153 532 1 c462 1 525 3
478 14 -30 8 -57 18 -60 24 -24 38 -148 104 -236 125 -66 16 -92 24 -140 42
-11 4 -29 8 -40 10 -19 3 -35 7 -135 34 -25 6 -62 14 -83 17 -27 4 -41 12 -47
27 -5 11 -9 15 -9 9 -1 -20 -21 -15 -21 5 0 17 35 37 93 53 142 37 241 78 251
104 6 15 -85 25 -241 25 -72 0 -113 4 -115 11 -2 6 -21 -35 -42 -92z"/>
<path d="M5095 481 c-11 -5 -23 -7 -27 -4 -5 2 -8 -3 -8 -11 0 -11 9 -16 30
-16 23 0 30 4 30 20 0 11 -1 20 -2 19 -2 0 -12 -4 -23 -8z"/>
<path d="M4670 419 c0 -5 5 -9 11 -9 6 0 18 -7 27 -16 14 -15 14 -18 -8 -34
-14 -10 -38 -22 -55 -25 -16 -4 -34 -9 -40 -11 -49 -17 -252 -49 -490 -79 -66
-8 -131 -17 -145 -20 -14 -3 -74 -12 -135 -21 -60 -8 -157 -22 -215 -30 -58
-9 -121 -18 -140 -20 -110 -14 -710 -85 -790 -95 -52 -5 -127 -17 -167 -25
-39 -8 -116 -19 -170 -23 -56 -5 516 -9 1335 -10 l1432 -1 0 213 0 212 -225 2
c-131 1 -225 -3 -225 -8z"/>
</g>
</svg>
